<?xml version="1.0" encoding="utf-8"?>
<!-- Generator: Adobe Illustrator 16.0.4, SVG Export Plug-In . SVG Version: 6.00 Build 0)  -->
<!DOCTYPE svg PUBLIC "-//W3C//DTD SVG 1.1//EN" "http://www.w3.org/Graphics/SVG/1.1/DTD/svg11.dtd">
<svg version="1.1" id="Layer_1" xmlns="http://www.w3.org/2000/svg" xmlns:xlink="http://www.w3.org/1999/xlink" x="0px" y="0px"
	 width="864px" height="864px" viewBox="0 0 864 864" enable-background="new 0 0 864 864" xml:space="preserve">
<g display="none">
	<path display="inline" d="M846.77,846.768l-52.617,1.243l-51.736,1.028l-51.735,0.883l-51.736,0.791l-103.472,1.264L432,852.897
		l-103.472,0.644l-103.472,0.354l-51.736,0.093l-51.736-0.04l-51.736-0.198l-51.736-0.354l-7.578-0.052l0.071-7.455l0.497-51.736
		l0.636-51.736l1.409-103.472l1.275-103.472l0.477-51.736L15.208,432l0.162-51.736l0.021-51.736l-0.098-51.736l-0.211-51.736
		l-0.324-51.736l-0.465-51.736l-1.11-103.472l-0.052-4.869l4.979-0.059l103.472-1.214l51.736-0.602l51.736-0.479
		c34.491-0.338,68.981-0.581,103.472-0.762L432,9.604l206.944-0.897l51.736-0.175l51.735-0.082L845.889,8.5l9.643,0.004l-0.03,9.607
		l-0.329,103.472l-0.535,103.472l-0.715,103.472L852.977,432l-0.518,51.736l-0.609,51.736l-0.621,51.735l-0.737,51.736
		l-0.771,51.736l-0.861,51.735l-0.966,51.736L846.77,846.768z M844.969,844.967l-1.084-50.814l-0.966-51.736l-0.861-51.735
		l-0.771-51.736l-0.737-51.736l-0.621-51.735l-0.609-51.736L838.801,432l-0.945-103.472l-0.715-103.472l-0.535-103.472
		l-0.329-103.472l9.612,9.612l-103.473,0.048l-51.735-0.082l-51.736-0.175L432,26.618l-103.472-0.522
		c-34.491-0.181-68.981-0.424-103.472-0.762l-51.736-0.479l-51.736-0.602L18.111,23.039l4.928-4.928l-1.11,103.472l-0.465,51.736
		l-0.324,51.736l-0.211,51.736l-0.098,51.736l0.021,51.736L21.015,432l0.311,51.736l0.477,51.736l1.275,103.472l1.409,103.472
		l0.636,51.736l0.497,51.736l-7.507-7.507l51.736-0.354l51.736-0.198l51.736-0.04l51.736,0.093l103.472,0.354L432,838.88
		l103.473,0.921l103.472,1.264l51.736,0.791l51.735,0.883l51.736,1.028L844.969,844.967z"/>
</g>
<g display="none">
	<polygon display="inline" points="200.699,590.369 200.699,389.152 334.669,389.152 334.669,415.497 229.04,415.497 
		229.04,473.288 320.852,473.288 320.852,499.632 229.04,499.632 229.04,590.369 	"/>
	<path display="inline" d="M330.863,392.959v18.731h-105.63v65.405h91.812v18.73h-91.812v90.738h-20.727V392.959H330.863z"/>
	<path display="inline" d="M436.459,590.369V389.152h77.194c9.913,0,18.859,1.766,26.59,5.25c7.69,3.467,14.268,8.069,19.555,13.679
		c5.276,5.605,9.333,11.983,12.06,18.958c2.72,6.97,4.099,14.048,4.099,21.038c0,7.494-1.376,14.876-4.092,21.938
		c-2.732,7.105-6.831,13.504-12.183,19.019c-5.345,5.508-11.956,9.977-19.653,13.282c-7.708,3.312-16.582,4.992-26.375,4.992
		h-48.854v83.061H436.459z M513.653,481.578c4.478,0,8.804-0.878,12.861-2.61c4.101-1.751,7.766-4.178,10.896-7.215
		c3.112-3.021,5.623-6.652,7.465-10.791c1.818-4.096,2.741-8.534,2.741-13.192s-0.872-8.997-2.594-12.895
		c-1.733-3.921-4.132-7.361-7.129-10.222c-2.998-2.862-6.607-5.127-10.727-6.729c-4.146-1.611-8.692-2.428-13.514-2.428h-48.854
		v66.082H513.653z"/>
	<path display="inline" d="M440.266,392.959h73.388c9.417,0,17.757,1.638,25.026,4.913c7.267,3.277,13.382,7.549,18.348,12.82
		c4.964,5.273,8.725,11.184,11.284,17.733c2.558,6.552,3.838,13.103,3.838,19.652c0,7.062-1.28,13.921-3.838,20.573
		c-2.56,6.654-6.348,12.565-11.361,17.733c-5.017,5.169-11.158,9.314-18.424,12.436c-7.269,3.123-15.56,4.683-24.873,4.683h-52.661
		v83.062h-20.727V392.959z M460.992,485.385h52.661c5.015,0,9.8-0.971,14.356-2.917c4.553-1.942,8.571-4.605,12.053-7.983
		c3.478-3.378,6.24-7.369,8.29-11.976c2.046-4.605,3.07-9.519,3.07-14.739c0-5.22-0.974-10.029-2.917-14.432
		c-1.945-4.399-4.605-8.214-7.983-11.438c-3.378-3.224-7.369-5.731-11.976-7.522c-4.606-1.79-9.572-2.687-14.894-2.687h-52.661
		V485.385z"/>
	<polygon display="inline" points="727.652,590.369 659.355,389.152 690.14,389.152 742.672,547.627 795.498,389.152 
		826.094,389.152 758.915,590.369 	"/>
	<path display="inline" d="M742.662,559.695l55.579-166.736h22.568l-64.637,193.604H730.38l-65.712-193.604h22.723L742.662,559.695z
		"/>
	<polygon display="inline" points="201.231,709.446 201.231,594.098 220.379,594.098 220.379,691.409 274.545,691.409 
		274.545,709.446 	"/>
	<path display="inline" d="M216.572,597.904v97.312h54.167v10.423h-65.701V597.904H216.572z"/>
	<path display="inline" d="M357.009,709.446l-11.961-32.978h-40.969l-11.961,32.978h-20.432l42.536-115.349h21.039l41.986,115.349
		H357.009z M338.391,658.688l-13.835-38.861l-13.897,38.861H338.391z"/>
	<path display="inline" d="M332.594,597.904l39.215,107.734h-12.132l-11.961-32.977H301.41l-11.961,32.977h-12.303l39.729-107.734
		H332.594z M324.563,608.499l-19.309,53.995h38.532L324.563,608.499z"/>
	<polygon display="inline" points="446.013,709.446 397.231,626.496 397.231,709.446 378.084,709.446 378.084,594.098 
		399.53,594.098 448.398,676.992 448.398,594.098 467.461,594.098 467.461,709.446 	"/>
	<path display="inline" d="M397.355,597.904l54.85,93.041v-93.041h11.449v107.734h-15.465l-54.764-93.125v93.125h-11.535V597.904
		H397.355z"/>
	<path display="inline" d="M476.164,709.446V594.098h43.792c7.675,0,14.739,1.57,20.997,4.666c6.213,3.078,11.562,7.306,15.9,12.567
		c4.295,5.209,7.641,11.354,9.943,18.262c2.284,6.854,3.442,14.243,3.442,21.965c0,8.02-1.22,15.624-3.626,22.601
		c-2.423,7.027-5.876,13.216-10.263,18.394c-4.425,5.224-9.788,9.387-15.938,12.37c-6.189,3.002-13.072,4.524-20.457,4.524H476.164z
		 M515.342,691.409c5.175,0,9.994-0.896,14.324-2.664c4.285-1.75,8.036-4.305,11.147-7.594c3.126-3.302,5.612-7.457,7.39-12.353
		c1.804-4.969,2.719-10.712,2.719-17.07c0-6.978-0.929-13.063-2.761-18.091c-1.797-4.927-4.28-9.022-7.382-12.175
		c-3.079-3.128-6.791-5.479-11.033-6.984c-4.379-1.556-9.226-2.344-14.404-2.344h-20.201v79.274H515.342z"/>
	<path display="inline" d="M479.971,597.904h39.985c7.118,0,13.555,1.424,19.308,4.271c5.753,2.85,10.638,6.706,14.653,11.576
		c4.016,4.871,7.104,10.552,9.27,17.045c2.164,6.493,3.246,13.414,3.246,20.761c0,7.634-1.14,14.754-3.417,21.36
		c-2.279,6.607-5.468,12.332-9.568,17.172c-4.102,4.842-9.001,8.644-14.695,11.406c-5.696,2.764-11.962,4.143-18.796,4.143h-39.985
		V597.904z M491.334,695.216h24.008c5.694,0,10.949-0.981,15.763-2.947c4.812-1.964,8.972-4.799,12.475-8.501
		c3.503-3.701,6.236-8.258,8.201-13.669c1.965-5.412,2.948-11.535,2.948-18.37c0-7.46-0.998-13.925-2.99-19.395
		c-1.995-5.467-4.742-9.979-8.245-13.541c-3.503-3.559-7.661-6.193-12.474-7.902c-4.813-1.71-10.039-2.562-15.678-2.562h-24.008
		V695.216z"/>
	<rect x="584.581" y="594.098" display="inline" width="19.062" height="115.349"/>
	<path display="inline" d="M599.836,597.904v107.734h-11.448V597.904H599.836z"/>
	<polygon display="inline" points="686.084,709.446 637.304,626.496 637.304,709.446 618.157,709.446 618.157,594.098 
		639.602,594.098 688.471,676.992 688.471,594.098 707.533,594.098 707.533,709.446 	"/>
	<path display="inline" d="M637.427,597.904l54.851,93.041v-93.041h11.448v107.734h-15.464l-54.765-93.125v93.125h-11.533V597.904
		H637.427z"/>
	<path display="inline" d="M768.913,712.265c-8.063,0-15.449-1.593-21.948-4.736c-6.479-3.132-12.082-7.521-16.654-13.047
		c-4.529-5.47-8.05-11.966-10.466-19.307c-2.395-7.271-3.609-15.218-3.609-23.617c0-4.912,0.517-9.874,1.534-14.746
		c1.018-4.881,2.539-9.61,4.521-14.058c1.991-4.464,4.471-8.656,7.369-12.461c2.94-3.858,6.37-7.258,10.197-10.104
		c3.854-2.867,8.194-5.148,12.9-6.779c4.741-1.641,9.918-2.474,15.388-2.474c6.819,0,13.023,0.93,18.437,2.765
		c5.443,1.846,10.265,4.448,14.329,7.737c4.055,3.281,7.503,7.231,10.254,11.74c2.709,4.446,4.818,9.373,6.272,14.641l1.329,4.82
		h-19.826l-0.895-2.542c-2.575-7.31-6.288-12.765-11.036-16.214c-4.722-3.428-11.068-5.167-18.864-5.167
		c-4.669,0-9.003,1.102-12.877,3.273c-3.993,2.238-7.495,5.316-10.408,9.149c-2.967,3.904-5.311,8.519-6.963,13.717
		c-1.668,5.239-2.513,10.858-2.513,16.701c0,6.95,0.936,13.188,2.782,18.537c1.832,5.315,4.306,9.855,7.351,13.495
		c2.988,3.57,6.517,6.321,10.485,8.178c3.969,1.86,8.225,2.803,12.654,2.803c2.466,0,4.965-0.433,7.426-1.284
		c2.533-0.878,4.983-2.13,7.281-3.721c2.342-1.62,4.551-3.569,6.567-5.792c2.02-2.228,3.81-4.703,5.32-7.356
		c1.502-2.644,2.712-5.458,3.596-8.365c0.481-1.585,0.847-3.198,1.095-4.826h-33.042v-17.694h51.955v63.915h-13.999l-2.49-13.946
		c-0.572,0.614-1.161,1.223-1.771,1.825c-2.814,2.785-5.95,5.308-9.318,7.492c-3.392,2.2-7.004,3.998-10.735,5.343
		C776.664,711.557,772.752,712.265,768.913,712.265z"/>
	<path display="inline" d="M731.577,651.558c0,7.404,0.996,14,2.99,19.779c1.993,5.781,4.67,10.679,8.031,14.695
		c3.359,4.015,7.29,7.078,11.79,9.184c4.499,2.108,9.255,3.161,14.268,3.161c2.905,0,5.795-0.498,8.671-1.494
		c2.877-0.996,5.61-2.393,8.203-4.188c2.591-1.793,4.998-3.915,7.219-6.363c2.222-2.449,4.158-5.128,5.81-8.031
		c1.652-2.906,2.961-5.952,3.931-9.143c0.968-3.189,1.509-6.436,1.623-9.739h-33.406v-10.081h44.343v56.301h-7.007l-3.417-19.136
		c-1.823,2.79-4.059,5.496-6.707,8.115c-2.647,2.622-5.553,4.956-8.714,7.007c-3.161,2.05-6.48,3.702-9.954,4.954
		c-3.475,1.252-6.92,1.879-10.337,1.879c-7.519,0-14.283-1.451-20.291-4.355c-6.011-2.906-11.137-6.921-15.38-12.048
		c-4.243-5.126-7.504-11.149-9.782-18.069s-3.417-14.396-3.417-22.428c0-4.669,0.482-9.325,1.452-13.969
		c0.968-4.64,2.393-9.068,4.272-13.285c1.879-4.215,4.187-8.116,6.92-11.704s5.881-6.708,9.44-9.355
		c3.559-2.648,7.52-4.728,11.876-6.237c4.357-1.508,9.069-2.264,14.141-2.264c6.435,0,12.174,0.855,17.214,2.563
		c5.041,1.708,9.427,4.072,13.158,7.091c3.729,3.021,6.862,6.607,9.397,10.764c2.534,4.159,4.485,8.716,5.854,13.672h-12.133
		c-2.849-8.088-6.979-14.099-12.389-18.028c-5.411-3.931-12.445-5.895-21.102-5.895c-5.355,0-10.269,1.254-14.738,3.759
		c-4.473,2.508-8.33,5.895-11.576,10.167c-3.247,4.272-5.768,9.228-7.562,14.866C732.474,639.341,731.577,645.293,731.577,651.558z"
		/>
	<path display="inline" d="M201.504,823.644V713.095h42.826c5.524,0,10.527,0.991,14.87,2.948c4.305,1.942,7.993,4.525,10.962,7.677
		c2.962,3.146,5.241,6.731,6.775,10.653c1.527,3.913,2.301,7.894,2.301,11.833c0,4.205-0.772,8.344-2.294,12.305
		c-1.541,4.005-3.85,7.609-6.862,10.714c-3.005,3.098-6.715,5.606-11.025,7.458c-4.322,1.857-9.277,2.8-14.726,2.8h-24.192v44.161
		H201.504z M244.33,762.236c2.166,0,4.174-0.407,6.139-1.245c1.977-0.844,3.744-2.014,5.25-3.475
		c1.49-1.448,2.695-3.192,3.581-5.184c0.878-1.975,1.304-4.031,1.304-6.289c0-2.229-0.413-4.293-1.227-6.137
		c-0.827-1.87-1.968-3.506-3.391-4.865c-1.425-1.36-3.149-2.439-5.12-3.206c-1.994-0.775-4.195-1.168-6.538-1.168h-24.192v31.568
		H244.33z"/>
	<path display="inline" d="M205.311,716.901h39.019c5.006,0,9.441,0.871,13.306,2.612c3.863,1.743,7.114,4.014,9.754,6.816
		c2.639,2.803,4.639,5.946,6,9.429c1.359,3.482,2.041,6.967,2.041,10.447c0,3.756-0.681,7.402-2.041,10.939
		c-1.361,3.538-3.375,6.681-6.041,9.427c-2.667,2.75-5.932,4.954-9.795,6.613c-3.865,1.66-8.272,2.49-13.224,2.49h-27.999v44.161
		h-11.02V716.901z M216.331,766.043h27.999c2.666,0,5.21-0.517,7.632-1.551c2.421-1.033,4.557-2.449,6.408-4.245
		c1.849-1.796,3.319-3.918,4.408-6.366c1.088-2.449,1.633-5.062,1.633-7.837c0-2.776-0.518-5.334-1.552-7.674
		c-1.034-2.339-2.448-4.367-4.244-6.081s-3.918-3.048-6.367-4c-2.449-0.952-5.09-1.428-7.918-1.428h-27.999V766.043z"/>
	<path display="inline" d="M357.738,823.644l-11.428-31.509h-38.906l-11.428,31.509h-19.884l40.765-110.549h20.339l40.24,110.549
		H357.738z M339.828,774.808l-12.979-36.457l-13.037,36.457H339.828z"/>
	<path display="inline" d="M334.53,716.901l37.468,102.936h-11.591l-11.428-31.509h-44.243l-11.428,31.509h-11.755l37.958-102.936
		H334.53z M326.857,727.023l-18.449,51.591h36.815L326.857,727.023z"/>
	<path display="inline" d="M428.486,826.337c-7.73,0-14.81-1.527-21.044-4.543c-6.208-2.999-11.581-7.207-15.969-12.508
		c-4.34-5.243-7.715-11.468-10.03-18.502c-2.293-6.966-3.456-14.576-3.456-22.619c0-4.704,0.494-9.457,1.468-14.124
		c0.975-4.679,2.433-9.209,4.331-13.465c1.909-4.28,4.284-8.298,7.061-11.941c2.816-3.695,6.105-6.955,9.775-9.687
		c3.693-2.748,7.856-4.936,12.373-6.5c4.545-1.575,9.511-2.373,14.756-2.373c6.537,0,12.482,0.891,17.671,2.65
		c5.218,1.77,9.842,4.266,13.742,7.42c3.892,3.151,7.2,6.941,9.836,11.265c2.595,4.257,4.617,8.977,6.011,14.03l1.329,4.817h-19.284
		l-0.896-2.542c-2.448-6.949-5.976-12.134-10.482-15.407c-4.481-3.256-10.513-4.906-17.926-4.906c-4.495,0-8.492,1.016-12.22,3.104
		c-3.794,2.128-7.122,5.054-9.891,8.697c-2.824,3.716-5.054,8.107-6.627,13.054c-1.587,4.989-2.392,10.342-2.392,15.907
		c0,6.623,0.891,12.563,2.649,17.656c1.744,5.059,4.097,9.378,6.994,12.838c2.838,3.392,6.189,6.006,9.96,7.772
		c3.77,1.765,7.812,2.66,12.018,2.66c2.339,0,4.707-0.41,7.039-1.218c2.407-0.834,4.734-2.023,6.917-3.534
		c2.227-1.542,4.328-3.396,6.244-5.509c1.922-2.118,3.625-4.472,5.062-6.999c1.431-2.516,2.581-5.194,3.421-7.957
		c0.438-1.443,0.775-2.91,1.01-4.393h-31.54v-17.246h49.979v61.407h-13.687l-2.346-13.132c-0.475,0.505-0.963,1.006-1.464,1.501
		c-2.704,2.676-5.71,5.092-8.933,7.182c-3.251,2.11-6.714,3.833-10.291,5.122C435.934,825.657,432.177,826.337,428.486,826.337z"/>
	<path display="inline" d="M392.814,768.165c0,7.075,0.951,13.376,2.857,18.897c1.904,5.524,4.461,10.204,7.673,14.04
		c3.21,3.837,6.965,6.763,11.265,8.776c4.298,2.013,8.843,3.02,13.632,3.02c2.776,0,5.537-0.476,8.286-1.429
		c2.747-0.952,5.359-2.285,7.836-4c2.476-1.715,4.775-3.741,6.898-6.081c2.122-2.34,3.972-4.898,5.551-7.673
		c1.577-2.776,2.829-5.687,3.755-8.734c0.925-3.047,1.441-6.148,1.551-9.306h-31.917v-9.633h42.366v53.794h-6.694l-3.265-18.285
		c-1.742,2.668-3.878,5.252-6.408,7.755c-2.53,2.504-5.306,4.735-8.326,6.694s-6.191,3.538-9.511,4.734s-6.611,1.796-9.877,1.796
		c-7.183,0-13.646-1.388-19.387-4.163c-5.742-2.775-10.64-6.613-14.693-11.51c-4.055-4.897-7.171-10.653-9.347-17.265
		c-2.176-6.612-3.265-13.756-3.265-21.429c0-4.462,0.461-8.909,1.388-13.347c0.925-4.435,2.285-8.666,4.082-12.692
		c1.795-4.027,4-7.756,6.612-11.184c2.612-3.429,5.619-6.408,9.02-8.938c3.4-2.531,7.184-4.517,11.347-5.959
		s8.665-2.164,13.51-2.164c6.149,0,11.632,0.816,16.448,2.449s9.006,3.892,12.571,6.775c3.563,2.886,6.558,6.313,8.979,10.286
		c2.421,3.972,4.285,8.325,5.592,13.06h-11.592c-2.722-7.726-6.667-13.469-11.836-17.223c-5.171-3.756-11.892-5.633-20.163-5.633
		c-5.116,0-9.81,1.197-14.081,3.591c-4.273,2.396-7.959,5.633-11.061,9.714c-3.103,4.082-5.511,8.816-7.225,14.203
		C393.671,756.493,392.814,762.179,392.814,768.165z"/>
	<polygon display="inline" points="484.351,823.644 484.351,713.095 560.695,713.095 560.695,730.668 502.983,730.668 
		502.983,757.828 557.268,757.828 557.268,775.401 502.983,775.401 502.983,806.072 563.227,806.072 563.227,823.644 	"/>
	<path display="inline" d="M556.889,716.901v9.96h-57.712v34.773h54.284v9.96h-54.284v38.284h60.243v9.958h-71.263V716.901H556.889z
		"/>
	<path display="inline" d="M613.457,826.583c-5.258,0-10.44-0.899-15.402-2.671c-4.983-1.78-9.486-4.357-13.384-7.66
		c-3.934-3.333-7.158-7.436-9.584-12.195c-2.45-4.812-3.784-10.257-3.964-16.186l-0.119-3.922h18.805l0.262,3.524
		c0.237,3.177,0.975,6.128,2.192,8.771c1.207,2.625,2.836,4.925,4.843,6.839c1.997,1.905,4.393,3.41,7.121,4.472
		c2.751,1.075,5.856,1.619,9.23,1.619c3.119,0,6.137-0.337,8.967-1.001c2.654-0.623,5.023-1.641,7.044-3.026
		c1.934-1.325,3.426-2.988,4.562-5.081c1.103-2.038,1.662-4.642,1.662-7.737c0-2.248-0.526-4.069-1.607-5.569
		c-1.249-1.729-2.938-3.253-5.024-4.532c-2.29-1.403-4.929-2.633-7.841-3.652c-3.123-1.095-6.362-2.166-9.629-3.184
		c-2.759-0.812-5.604-1.703-8.396-2.634c-2.899-0.967-5.729-2.073-8.409-3.288c-2.775-1.254-5.409-2.742-7.825-4.423
		c-2.513-1.746-4.739-3.802-6.617-6.11c-1.927-2.367-3.457-5.121-4.55-8.186c-1.095-3.062-1.65-6.567-1.65-10.42
		c0-4.827,0.975-9.209,2.897-13.021c1.927-3.82,4.678-7.053,8.176-9.605c3.384-2.469,7.441-4.358,12.059-5.618
		c4.493-1.226,9.499-1.848,14.878-1.848c7.188,0,13.315,1.082,18.213,3.215c4.917,2.142,8.956,4.945,12.003,8.33
		c3.035,3.372,5.263,7.163,6.621,11.269c1.293,3.912,2.069,7.761,2.308,11.439l0.263,4.052h-18.843l-0.278-3.504
		c-0.231-2.901-0.914-5.46-2.03-7.604s-2.566-3.958-4.309-5.392c-1.766-1.453-3.843-2.568-6.171-3.313
		c-2.414-0.773-5.031-1.164-7.776-1.164c-2.603,0-5.189,0.272-7.688,0.811c-2.363,0.512-4.494,1.323-6.329,2.411
		c-1.697,1.006-3.018,2.271-4.036,3.872c-0.932,1.464-1.404,3.371-1.404,5.67c0,2.387,0.526,4.308,1.61,5.875
		c1.22,1.765,2.89,3.314,4.964,4.608c2.283,1.424,4.973,2.691,7.996,3.765c3.234,1.151,6.589,2.242,9.969,3.243
		c2.843,0.893,5.665,1.806,8.448,2.733c2.898,0.967,5.718,2.075,8.38,3.293c2.745,1.255,5.335,2.707,7.698,4.312
		c2.505,1.701,4.704,3.713,6.536,5.979c1.869,2.316,3.357,5.015,4.422,8.021c1.067,3.012,1.607,6.433,1.607,10.169
		c0,5.563-1.062,10.571-3.158,14.886c-2.1,4.322-5.061,7.987-8.804,10.895c-3.667,2.851-8.062,5.008-13.059,6.413
		C624.441,825.889,619.11,826.583,613.457,826.583z"/>
	<path display="inline" d="M586.275,787.756c0.271,3.647,1.113,7.008,2.53,10.081c1.414,3.076,3.306,5.743,5.673,8
		c2.367,2.259,5.156,4.015,8.367,5.266c3.21,1.253,6.747,1.878,10.611,1.878c3.429,0,6.706-0.367,9.837-1.102
		c3.128-0.735,5.904-1.932,8.326-3.593c2.421-1.659,4.34-3.796,5.755-6.407c1.414-2.612,2.123-5.796,2.123-9.551
		c0-3.048-0.775-5.646-2.327-7.796c-1.551-2.148-3.592-4-6.122-5.551s-5.388-2.885-8.571-4s-6.436-2.189-9.755-3.226
		c-2.775-0.816-5.551-1.686-8.326-2.61c-2.776-0.926-5.457-1.972-8.04-3.144c-2.586-1.169-4.994-2.531-7.225-4.082
		c-2.231-1.551-4.178-3.347-5.837-5.387c-1.66-2.04-2.967-4.394-3.918-7.062c-0.952-2.665-1.429-5.713-1.429-9.142
		c0-4.246,0.829-8.014,2.49-11.307c1.659-3.291,3.999-6.041,7.021-8.244c3.02-2.203,6.625-3.878,10.815-5.02
		c4.189-1.144,8.815-1.715,13.877-1.715c6.693,0,12.258,0.967,16.693,2.898c4.435,1.931,7.999,4.394,10.693,7.387
		s4.639,6.299,5.837,9.918c1.195,3.619,1.903,7.115,2.123,10.488h-11.266c-0.272-3.427-1.089-6.448-2.449-9.059
		c-1.361-2.613-3.115-4.804-5.265-6.572c-2.151-1.769-4.626-3.103-7.429-4c-2.803-0.896-5.783-1.346-8.938-1.346
		c-2.886,0-5.715,0.298-8.489,0.896c-2.776,0.601-5.265,1.551-7.469,2.857c-2.204,1.306-3.974,3.008-5.308,5.102
		c-1.333,2.095-2,4.667-2,7.715c0,3.157,0.763,5.836,2.287,8.039c1.522,2.204,3.551,4.097,6.08,5.675
		c2.531,1.579,5.442,2.951,8.735,4.122c3.292,1.17,6.68,2.273,10.163,3.305c2.775,0.872,5.551,1.771,8.326,2.695
		c2.775,0.926,5.44,1.973,8,3.143c2.558,1.17,4.938,2.503,7.142,4c2.205,1.498,4.108,3.237,5.715,5.224
		c1.604,1.987,2.869,4.285,3.795,6.898c0.926,2.612,1.389,5.579,1.389,8.897c0,5.007-0.926,9.416-2.775,13.224
		c-1.851,3.81-4.422,6.993-7.714,9.551c-3.294,2.559-7.212,4.478-11.755,5.754c-4.545,1.279-9.483,1.92-14.816,1.92
		c-4.844,0-9.55-0.816-14.122-2.449c-4.57-1.633-8.64-3.959-12.203-6.979c-3.564-3.021-6.449-6.694-8.653-11.02
		c-2.203-4.327-3.387-9.184-3.551-14.572H586.275z"/>
	<rect x="657.243" y="809.339" display="inline" width="14.153" height="14.305"/>
	<path display="inline" d="M667.59,813.146v6.691h-6.54v-6.691H667.59z"/>
	<path display="inline" d="M696.268,825.021c-3.809,0-7.334-0.71-10.476-2.107c-3.188-1.418-5.94-3.498-8.182-6.181
		c-2.187-2.618-3.886-5.828-5.05-9.542c-1.132-3.602-1.705-7.696-1.705-12.171c0-2.371,0.246-4.738,0.733-7.038
		c0.489-2.32,1.222-4.552,2.176-6.632c0.962-2.101,2.162-4.07,3.565-5.854c1.445-1.835,3.13-3.443,5.009-4.781
		c1.902-1.353,4.034-2.42,6.34-3.174c2.329-0.761,4.855-1.146,7.513-1.146c3.285,0,6.289,0.455,8.928,1.351
		c2.669,0.904,5.044,2.188,7.059,3.817c2.004,1.622,3.707,3.571,5.063,5.796c1.314,2.159,2.337,4.543,3.04,7.089l1.328,4.818
		h-13.123l-0.896-2.542c-1.008-2.86-2.419-4.965-4.191-6.253c-1.747-1.269-4.173-1.912-7.208-1.912
		c-1.763,0-3.322,0.385-4.767,1.176c-1.558,0.854-2.87,1.979-4.013,3.441c-1.171,1.502-2.103,3.293-2.764,5.319
		c-0.676,2.066-1.018,4.287-1.018,6.601c0,3.223,0.41,6.02,1.219,8.314c0.791,2.247,1.81,4.096,3.028,5.496
		c1.186,1.362,2.476,2.344,3.941,3c1.481,0.664,2.936,0.987,4.448,0.987c1.562,0,2.96-0.273,4.152-0.812
		c1.29-0.58,2.377-1.318,3.32-2.254c0.966-0.955,1.773-2.065,2.402-3.304c0.654-1.285,1.118-2.613,1.381-3.943l0.604-3.07h12.984
		l-0.879,4.531c-0.55,2.833-1.462,5.521-2.711,7.99c-1.29,2.549-2.967,4.811-4.984,6.723c-2.044,1.938-4.456,3.482-7.167,4.588
		C702.643,824.456,699.579,825.021,696.268,825.021z"/>
	<path display="inline" d="M679.824,795.097c0,3.67,0.479,6.864,1.435,9.58c0.956,2.713,2.205,4.957,3.748,6.729
		c1.541,1.772,3.294,3.097,5.258,3.976c1.962,0.88,3.963,1.319,6.003,1.319c2.116,0,4.021-0.382,5.717-1.147
		c1.694-0.764,3.174-1.771,4.436-3.021c1.263-1.247,2.3-2.676,3.116-4.281c0.815-1.606,1.39-3.251,1.722-4.933h5.238
		c-0.484,2.498-1.275,4.831-2.371,6.997c-1.097,2.167-2.498,4.06-4.207,5.679c-1.707,1.62-3.702,2.894-5.983,3.823
		c-2.282,0.931-4.837,1.396-7.667,1.396c-3.289,0-6.266-0.594-8.929-1.778c-2.664-1.186-4.934-2.899-6.807-5.144
		c-1.873-2.243-3.321-4.99-4.34-8.24c-1.021-3.249-1.53-6.927-1.53-11.032c0-2.116,0.217-4.198,0.65-6.251
		c0.434-2.052,1.07-3.997,1.912-5.832c0.842-1.836,1.873-3.531,3.098-5.087c1.224-1.554,2.631-2.899,4.225-4.033
		s3.365-2.02,5.315-2.657s4.06-0.957,6.329-0.957c2.88,0,5.449,0.383,7.705,1.148c2.256,0.764,4.219,1.823,5.889,3.173
		c1.669,1.352,3.072,2.958,4.206,4.817c1.134,1.862,2.008,3.9,2.619,6.119h-5.429c-1.275-3.619-3.124-6.309-5.545-8.068
		c-2.422-1.759-5.571-2.639-9.445-2.639c-2.397,0-4.596,0.549-6.596,1.644c-2.003,1.099-3.729,2.576-5.183,4.437
		c-1.452,1.861-2.581,4.022-3.384,6.481C680.227,789.775,679.824,792.368,679.824,795.097z"/>
	<path display="inline" d="M745.481,824.906c-3.977,0-7.605-0.741-10.785-2.203c-3.21-1.476-5.95-3.584-8.145-6.27
		c-2.14-2.611-3.78-5.74-4.878-9.297c-1.064-3.446-1.604-7.266-1.604-11.352c0-4.061,0.539-7.867,1.604-11.314
		c1.098-3.555,2.738-6.684,4.878-9.299c2.196-2.684,4.936-4.793,8.144-6.268c3.181-1.462,6.81-2.202,10.786-2.202
		c4.002,0,7.644,0.74,10.824,2.202c3.202,1.474,5.946,3.578,8.154,6.257c2.158,2.619,3.809,5.751,4.907,9.31
		c1.063,3.449,1.603,7.255,1.603,11.314c0,4.085-0.539,7.903-1.603,11.351c-1.1,3.562-2.75,6.692-4.906,9.311
		c-2.208,2.678-4.951,4.784-8.152,6.257C753.125,824.165,749.483,824.906,745.481,824.906z M745.481,778.826
		c-1.766,0-3.355,0.345-4.858,1.054c-1.509,0.71-2.791,1.713-3.919,3.066c-1.162,1.393-2.099,3.163-2.784,5.264
		c-0.713,2.181-1.075,4.729-1.075,7.575c0,2.845,0.362,5.394,1.075,7.575c0.688,2.105,1.627,3.886,2.792,5.291
		c1.129,1.363,2.407,2.369,3.911,3.077c1.501,0.707,3.09,1.052,4.858,1.052s3.357-0.345,4.86-1.052
		c1.506-0.71,2.796-1.721,3.939-3.09c1.176-1.406,2.127-3.188,2.827-5.296c0.72-2.176,1.087-4.72,1.087-7.558
		c0-2.839-0.367-5.382-1.088-7.56c-0.698-2.101-1.646-3.873-2.818-5.267c-1.145-1.359-2.436-2.367-3.947-3.079
		C748.837,779.171,747.248,778.826,745.481,778.826z"/>
	<path display="inline" d="M767.163,795.785c0,3.723-0.478,7.131-1.433,10.229c-0.957,3.097-2.359,5.768-4.208,8.01
		c-1.849,2.244-4.116,3.983-6.806,5.221c-2.69,1.236-5.769,1.854-9.235,1.854c-3.441,0-6.507-0.618-9.196-1.854
		c-2.69-1.237-4.952-2.977-6.787-5.221c-1.836-2.242-3.231-4.913-4.188-8.01c-0.956-3.099-1.434-6.507-1.434-10.229
		c0-3.696,0.478-7.094,1.434-10.191c0.956-3.097,2.352-5.768,4.188-8.012c1.835-2.242,4.097-3.981,6.787-5.22
		c2.689-1.234,5.755-1.854,9.196-1.854c3.467,0,6.545,0.619,9.235,1.854c2.689,1.238,4.957,2.978,6.806,5.22
		c1.849,2.244,3.251,4.915,4.208,8.012C766.686,788.691,767.163,792.089,767.163,795.785z M762.002,795.785
		c0-3.264-0.429-6.183-1.281-8.758c-0.854-2.573-2.027-4.747-3.519-6.519c-1.491-1.772-3.238-3.13-5.238-4.073
		c-2.003-0.942-4.163-1.416-6.482-1.416c-2.32,0-4.48,0.474-6.481,1.416c-2.001,0.943-3.742,2.301-5.22,4.073
		c-1.479,1.771-2.638,3.945-3.479,6.519c-0.841,2.575-1.263,5.494-1.263,8.758c0,3.263,0.422,6.182,1.263,8.757
		c0.842,2.574,2.001,4.754,3.479,6.538c1.478,1.785,3.219,3.149,5.22,4.092s4.161,1.414,6.481,1.414
		c2.319,0,4.479-0.472,6.482-1.414c2-0.942,3.747-2.307,5.238-4.092c1.491-1.784,2.664-3.964,3.519-6.538
		C761.573,801.967,762.002,799.048,762.002,795.785z"/>
	<polygon display="inline" points="809.854,823.644 809.854,801.673 801.787,823.644 791.862,823.644 783.511,801.309 
		783.511,823.644 770.736,823.644 770.736,767.812 783.841,767.812 796.531,801.916 809.507,767.812 822.592,767.812 
		822.592,823.644 	"/>
	<path display="inline" d="M781.195,771.618l15.297,41.106l15.64-41.106h6.653v48.219h-5.125v-39.576l-14.529,39.576h-4.628
		l-14.799-39.576v39.576h-5.162v-48.219H781.195z"/>
</g>
<g>
	<rect x="32.462" y="33.461" fill="#FFFFFF" stroke="#000000" stroke-miterlimit="10" width="798.077" height="798.077"/>
	<g>
		<polygon fill="#FFFFFF" stroke="#000000" stroke-miterlimit="10" points="107.385,540.905 107.385,318.559 255.423,318.559 
			255.423,347.669 138.701,347.669 138.701,411.53 240.155,411.53 240.155,440.64 138.701,440.64 138.701,540.905 		"/>
		<path fill="#FFFFFF" stroke="#000000" stroke-miterlimit="10" d="M251.217,322.765v20.698H134.495v72.273h101.454v20.697H134.495
			V536.7h-22.904V322.765H251.217z"/>
		<path fill="#FFFFFF" stroke="#000000" stroke-miterlimit="10" d="M367.902,540.905V318.559h85.301
			c10.954,0,20.84,1.952,29.382,5.8c8.498,3.832,15.767,8.917,21.608,15.116c5.831,6.194,10.313,13.242,13.326,20.949
			c3.005,7.702,4.529,15.523,4.529,23.248c0,8.282-1.521,16.439-4.521,24.242c-3.02,7.852-7.548,14.923-13.462,21.016
			c-5.905,6.087-13.212,11.025-21.718,14.677c-8.517,3.66-18.323,5.518-29.145,5.518h-53.985v91.782H367.902z M453.203,420.69
			c4.948,0,9.729-0.969,14.213-2.884c4.53-1.934,8.581-4.616,12.038-7.973c3.439-3.339,6.214-7.351,8.249-11.925
			c2.01-4.525,3.029-9.43,3.029-14.576c0-5.149-0.963-9.943-2.865-14.25c-1.915-4.333-4.565-8.135-7.878-11.295
			c-3.312-3.163-7.302-5.666-11.853-7.436c-4.582-1.78-9.605-2.683-14.934-2.683h-53.985v73.021H453.203z"/>
		<path fill="#FFFFFF" stroke="#000000" stroke-miterlimit="10" d="M372.109,322.765h81.094c10.406,0,19.622,1.811,27.655,5.43
			c8.029,3.62,14.786,8.342,20.274,14.166c5.484,5.826,9.64,12.358,12.469,19.595c2.826,7.24,4.24,14.478,4.24,21.716
			c0,7.805-1.414,15.383-4.24,22.734c-2.829,7.354-7.015,13.885-12.555,19.596c-5.544,5.71-12.33,10.293-20.359,13.74
			c-8.03,3.452-17.192,5.176-27.484,5.176h-58.191V536.7h-22.902V322.765z M395.012,424.897h58.191
			c5.541,0,10.829-1.073,15.864-3.224c5.03-2.147,9.472-5.091,13.318-8.822c3.843-3.733,6.895-8.144,9.16-13.233
			c2.261-5.089,3.394-10.518,3.394-16.286c0-5.769-1.075-11.083-3.225-15.948c-2.148-4.862-5.088-9.077-8.821-12.64
			c-3.732-3.562-8.143-6.333-13.232-8.312c-5.091-1.978-10.579-2.969-16.458-2.969h-58.191V424.897z"/>
		<polygon fill="#FFFFFF" stroke="#000000" stroke-miterlimit="10" points="689.676,540.905 614.206,318.559 648.223,318.559 
			706.271,493.676 764.646,318.559 798.453,318.559 724.221,540.905 		"/>
		<path fill="#FFFFFF" stroke="#000000" stroke-miterlimit="10" d="M706.262,507.011l61.415-184.246h24.938L721.19,536.7h-28.501
			l-72.613-213.936h25.109L706.262,507.011z"/>
		<polygon fill="#FFFFFF" stroke="#000000" stroke-miterlimit="10" points="107.973,672.487 107.973,545.025 129.131,545.025 
			129.131,652.556 188.985,652.556 188.985,672.487 		"/>
		<path fill="#FFFFFF" stroke="#000000" stroke-miterlimit="10" d="M124.925,549.231v107.531h59.855v11.518h-72.601V549.231H124.925
			z"/>
		<path fill="#FFFFFF" stroke="#000000" stroke-miterlimit="10" d="M280.109,672.487l-13.217-36.44h-45.271l-13.217,36.44h-22.578
			l47.002-127.462h23.248l46.396,127.462H280.109z M259.536,616.398l-15.288-42.942l-15.357,42.942H259.536z"/>
		<path fill="#FFFFFF" stroke="#000000" stroke-miterlimit="10" d="M253.13,549.231l43.333,119.049h-13.406l-13.217-36.44h-51.169
			l-13.217,36.44h-13.596l43.901-119.049H253.13z M244.257,560.939l-21.337,59.665h42.579L244.257,560.939z"/>
		<polygon fill="#FFFFFF" stroke="#000000" stroke-miterlimit="10" points="378.46,672.487 324.556,580.826 324.556,672.487 
			303.397,672.487 303.397,545.025 327.096,545.025 381.095,636.625 381.095,545.025 402.16,545.025 402.16,672.487 		"/>
		<path fill="#FFFFFF" stroke="#000000" stroke-miterlimit="10" d="M324.692,549.231l60.61,102.812V549.231h12.652V668.28h-17.09
			L320.35,565.376V668.28h-12.746V549.231H324.692z"/>
		<path fill="#FFFFFF" stroke="#000000" stroke-miterlimit="10" d="M411.777,672.487V545.025h48.391
			c8.481,0,16.287,1.735,23.202,5.156c6.865,3.4,12.775,8.072,17.57,13.887c4.745,5.756,8.442,12.547,10.987,20.18
			c2.524,7.573,3.804,15.739,3.804,24.271c0,8.862-1.348,17.264-4.006,24.975c-2.678,7.766-6.494,14.604-11.342,20.325
			c-4.888,5.771-10.815,10.371-17.61,13.668c-6.839,3.317-14.445,5-22.605,5H411.777z M455.068,652.556
			c5.719,0,11.044-0.991,15.829-2.943c4.735-1.934,8.881-4.757,12.319-8.392c3.452-3.648,6.2-8.239,8.165-13.648
			c1.993-5.491,3.004-11.838,3.004-18.863c0-7.711-1.026-14.436-3.052-19.991c-1.985-5.444-4.729-9.97-8.157-13.453
			c-3.401-3.456-7.503-6.054-12.19-7.718c-4.839-1.719-10.194-2.589-15.918-2.589h-22.321v87.598H455.068z"/>
		<path fill="#FFFFFF" stroke="#000000" stroke-miterlimit="10" d="M415.984,549.231h44.184c7.865,0,14.979,1.574,21.335,4.722
			c6.357,3.148,11.756,7.409,16.192,12.791c4.437,5.384,7.85,11.66,10.243,18.834c2.392,7.176,3.587,14.823,3.587,22.941
			c0,8.436-1.26,16.304-3.775,23.604c-2.52,7.301-6.042,13.627-10.573,18.975c-4.534,5.351-9.946,9.551-16.239,12.604
			c-6.294,3.054-13.218,4.578-20.77,4.578h-44.184V549.231z M428.54,656.763h26.528c6.293,0,12.1-1.085,17.419-3.257
			c5.317-2.171,9.913-5.304,13.784-9.395c3.872-4.089,6.892-9.124,9.062-15.104c2.171-5.98,3.258-12.747,3.258-20.299
			c0-8.243-1.103-15.388-3.304-21.432c-2.205-6.041-5.241-11.027-9.111-14.964c-3.871-3.931-8.466-6.843-13.784-8.731
			c-5.318-1.89-11.093-2.832-17.324-2.832H428.54V656.763z"/>
		<rect x="531.579" y="545.025" fill="#FFFFFF" stroke="#000000" stroke-miterlimit="10" width="21.063" height="127.462"/>
		<path fill="#FFFFFF" stroke="#000000" stroke-miterlimit="10" d="M548.437,549.231V668.28h-12.651V549.231H548.437z"/>
		<polygon fill="#FFFFFF" stroke="#000000" stroke-miterlimit="10" points="643.741,672.487 589.838,580.826 589.838,672.487 
			568.682,672.487 568.682,545.025 592.378,545.025 646.38,636.625 646.38,545.025 667.443,545.025 667.443,672.487 		"/>
		<path fill="#FFFFFF" stroke="#000000" stroke-miterlimit="10" d="M589.975,549.231l60.61,102.812V549.231h12.651V668.28h-17.088
			l-60.517-102.904V668.28h-12.744V549.231H589.975z"/>
		<path fill="#FFFFFF" stroke="#000000" stroke-miterlimit="10" d="M735.269,675.602c-8.91,0-17.07-1.76-24.253-5.234
			c-7.159-3.459-13.351-8.311-18.403-14.416c-5.005-6.044-8.895-13.223-11.564-21.333c-2.646-8.035-3.989-16.816-3.989-26.099
			c0-5.429,0.571-10.91,1.695-16.294c1.124-5.394,2.806-10.62,4.996-15.534c2.2-4.934,4.94-9.565,8.143-13.77
			c3.249-4.264,7.039-8.02,11.268-11.164c4.259-3.169,9.055-5.69,14.255-7.492c5.239-1.813,10.96-2.733,17.005-2.733
			c7.534,0,14.39,1.028,20.373,3.056c6.014,2.039,11.342,4.915,15.833,8.55c4.481,3.625,8.29,7.989,11.331,12.973
			c2.992,4.913,5.323,10.357,6.931,16.178l1.469,5.327h-21.909l-0.988-2.809c-2.845-8.078-6.948-14.106-12.194-17.917
			c-5.218-3.788-12.23-5.71-20.845-5.71c-5.16,0-9.948,1.218-14.229,3.617c-4.412,2.473-8.282,5.875-11.501,10.111
			c-3.279,4.313-5.868,9.413-7.695,15.156c-1.842,5.789-2.775,11.999-2.775,18.455c0,7.68,1.033,14.573,3.073,20.484
			c2.025,5.872,4.759,10.891,8.123,14.912c3.303,3.945,7.201,6.985,11.587,9.037c4.385,2.055,9.088,3.096,13.982,3.096
			c2.725,0,5.487-0.477,8.206-1.418c2.799-0.971,5.507-2.354,8.046-4.112c2.587-1.79,5.028-3.943,7.257-6.4
			c2.232-2.461,4.21-5.196,5.879-8.128c1.66-2.923,2.998-6.032,3.974-9.244c0.533-1.752,0.936-3.533,1.21-5.332h-36.513v-19.553
			h57.412v70.626h-15.47l-2.751-15.41c-0.633,0.679-1.284,1.35-1.957,2.016c-3.11,3.078-6.574,5.865-10.296,8.279
			c-3.748,2.432-7.741,4.418-11.864,5.904C743.834,674.82,739.51,675.602,735.269,675.602z"/>
		<path fill="#FFFFFF" stroke="#000000" stroke-miterlimit="10" d="M694.012,608.52c0,8.181,1.102,15.47,3.304,21.857
			c2.204,6.388,5.161,11.799,8.876,16.237c3.712,4.437,8.055,7.821,13.027,10.148c4.973,2.329,10.227,3.493,15.766,3.493
			c3.212,0,6.403-0.55,9.581-1.652c3.18-1.1,6.201-2.643,9.066-4.626c2.862-1.981,5.522-4.327,7.976-7.031
			c2.455-2.707,4.596-5.667,6.419-8.876c1.827-3.21,3.273-6.576,4.346-10.102c1.067-3.525,1.666-7.111,1.793-10.763H737.25v-11.14
			h48.999v62.214h-7.742l-3.775-21.146c-2.015,3.084-4.485,6.073-7.412,8.967c-2.925,2.898-6.136,5.477-9.629,7.743
			s-7.161,4.091-10.999,5.474c-3.839,1.385-7.647,2.078-11.423,2.078c-8.308,0-15.783-1.605-22.421-4.814
			c-6.643-3.21-12.308-7.646-16.996-13.312c-4.688-5.665-8.292-12.32-10.81-19.967c-2.517-7.646-3.775-15.907-3.775-24.783
			c0-5.158,0.533-10.305,1.604-15.436c1.069-5.127,2.644-10.02,4.721-14.68c2.077-4.658,4.627-8.969,7.647-12.934
			c3.02-3.965,6.497-7.412,10.432-10.338c3.932-2.926,8.31-5.225,13.122-6.893c4.816-1.666,10.022-2.502,15.627-2.502
			c7.11,0,13.452,0.946,19.021,2.833c5.569,1.889,10.416,4.501,14.539,7.836c4.122,3.337,7.584,7.302,10.385,11.894
			c2.801,4.596,4.956,9.632,6.468,15.108h-13.406c-3.148-8.938-7.712-15.579-13.689-19.922c-5.979-4.343-13.753-6.514-23.317-6.514
			c-5.919,0-11.348,1.386-16.286,4.153c-4.942,2.771-9.205,6.515-12.793,11.234c-3.587,4.722-6.372,10.197-8.355,16.428
			C695.002,595.021,694.012,601.597,694.012,608.52z"/>
		<path fill="#FFFFFF" stroke="#000000" stroke-miterlimit="10" d="M108.274,798.677V676.519h47.323
			c6.104,0,11.632,1.097,16.431,3.259c4.757,2.146,8.833,5.001,12.113,8.482c3.273,3.477,5.792,7.438,7.486,11.773
			c1.687,4.322,2.543,8.722,2.543,13.075c0,4.646-0.854,9.219-2.535,13.596c-1.702,4.426-4.254,8.409-7.583,11.84
			c-3.321,3.423-7.42,6.193-12.184,8.241c-4.775,2.053-10.25,3.094-16.272,3.094h-26.733v48.798H108.274z M155.597,730.82
			c2.394,0,4.612-0.449,6.784-1.375c2.184-0.933,4.137-2.226,5.802-3.84c1.647-1.599,2.979-3.526,3.957-5.727
			c0.971-2.183,1.441-4.456,1.441-6.951c0-2.462-0.457-4.743-1.355-6.781c-0.914-2.065-2.174-3.873-3.747-5.375
			c-1.575-1.503-3.479-2.696-5.657-3.543c-2.203-0.857-4.635-1.291-7.224-1.291h-26.733v34.883H155.597z"/>
		<path fill="#FFFFFF" stroke="#000000" stroke-miterlimit="10" d="M112.481,680.726h43.116c5.531,0,10.432,0.962,14.703,2.886
			c4.27,1.928,7.861,4.437,10.779,7.532c2.916,3.098,5.126,6.571,6.629,10.419c1.502,3.849,2.255,7.698,2.255,11.546
			c0,4.149-0.753,8.178-2.255,12.087c-1.503,3.91-3.729,7.383-6.675,10.417c-2.947,3.039-6.555,5.475-10.824,7.309
			c-4.271,1.833-9.142,2.75-14.613,2.75h-30.94v48.801h-12.176V680.726z M124.657,735.026h30.94c2.946,0,5.757-0.569,8.434-1.712
			c2.675-1.143,5.036-2.707,7.082-4.692c2.043-1.984,3.667-4.328,4.871-7.034c1.203-2.705,1.804-5.595,1.804-8.66
			c0-3.066-0.572-5.894-1.715-8.479c-1.142-2.585-2.705-4.826-4.689-6.72c-1.984-1.895-4.33-3.368-7.036-4.42
			c-2.706-1.053-5.624-1.578-8.75-1.578h-30.94V735.026z"/>
		<path fill="#FFFFFF" stroke="#000000" stroke-miterlimit="10" d="M280.916,798.677l-12.629-34.817h-42.991l-12.628,34.817h-21.972
			l45.045-122.158h22.475l44.465,122.158H280.916z M261.125,744.713l-14.342-40.286l-14.406,40.286H261.125z"/>
		<path fill="#FFFFFF" stroke="#000000" stroke-miterlimit="10" d="M255.27,680.726l41.402,113.746h-12.808l-12.628-34.818h-48.889
			l-12.629,34.818h-12.989l41.944-113.746H255.27z M246.792,691.91l-20.386,57.008h40.682L246.792,691.91z"/>
		<path fill="#FFFFFF" stroke="#000000" stroke-miterlimit="10" d="M359.093,801.652c-8.543,0-16.365-1.688-23.254-5.019
			c-6.859-3.315-12.797-7.965-17.646-13.822c-4.796-5.793-8.525-12.672-11.083-20.445c-2.534-7.696-3.818-16.106-3.818-24.993
			c0-5.199,0.545-10.451,1.622-15.607c1.078-5.17,2.688-10.177,4.786-14.879c2.109-4.729,4.734-9.17,7.802-13.196
			c3.112-4.083,6.746-7.685,10.802-10.703c4.082-3.036,8.681-5.454,13.672-7.183c5.022-1.74,10.51-2.622,16.306-2.622
			c7.223,0,13.793,0.983,19.526,2.929c5.767,1.956,10.876,4.714,15.185,8.199c4.3,3.481,7.956,7.67,10.87,12.447
			c2.867,4.704,5.102,9.919,6.642,15.503l1.468,5.324h-21.309l-0.991-2.81c-2.706-7.679-6.604-13.407-11.583-17.025
			c-4.953-3.597-11.617-5.421-19.809-5.421c-4.967,0-9.385,1.122-13.503,3.431c-4.193,2.352-7.87,5.585-10.93,9.61
			c-3.12,4.105-5.585,8.959-7.324,14.425c-1.754,5.514-2.643,11.429-2.643,17.578c0,7.317,0.985,13.882,2.928,19.51
			c1.927,5.591,4.527,10.363,7.728,14.186c3.135,3.747,6.838,6.638,11.006,8.588c4.165,1.951,8.633,2.94,13.279,2.94
			c2.584,0,5.201-0.453,7.779-1.345c2.66-0.922,5.231-2.236,7.644-3.905c2.46-1.705,4.783-3.753,6.9-6.088
			c2.124-2.341,4.005-4.941,5.593-7.734c1.58-2.78,2.852-5.739,3.78-8.792c0.484-1.596,0.857-3.215,1.116-4.854h-34.852V730.82
			h55.228v67.856h-15.124l-2.592-14.511c-0.523,0.558-1.063,1.111-1.618,1.658c-2.987,2.957-6.308,5.627-9.87,7.937
			c-3.592,2.331-7.42,4.235-11.372,5.66C367.322,800.901,363.171,801.652,359.093,801.652z"/>
		<path fill="#FFFFFF" stroke="#000000" stroke-miterlimit="10" d="M319.675,737.373c0,7.818,1.051,14.779,3.157,20.881
			c2.104,6.104,4.93,11.275,8.479,15.515c3.548,4.24,7.696,7.473,12.448,9.698c4.75,2.225,9.771,3.337,15.063,3.337
			c3.068,0,6.119-0.526,9.157-1.579c3.036-1.052,5.922-2.524,8.659-4.42c2.735-1.896,5.276-4.134,7.624-6.72
			c2.345-2.586,4.389-5.413,6.133-8.479c1.743-3.067,3.126-6.283,4.148-9.651c1.023-3.368,1.594-6.795,1.715-10.284h-35.269v-10.645
			h46.814v59.445h-7.396l-3.608-20.206c-1.924,2.947-4.285,5.803-7.081,8.568c-2.796,2.768-5.863,5.233-9.201,7.398
			c-3.337,2.164-6.841,3.909-10.509,5.231c-3.668,1.321-7.306,1.985-10.915,1.985c-7.937,0-15.08-1.535-21.423-4.601
			c-6.345-3.068-11.757-7.309-16.236-12.72c-4.48-5.411-7.924-11.772-10.329-19.078s-3.607-15.199-3.607-23.678
			c0-4.931,0.51-9.846,1.533-14.749c1.022-4.901,2.526-9.575,4.51-14.025c1.984-4.449,4.42-8.569,7.307-12.356
			c2.887-3.79,6.208-7.083,9.967-9.879c3.758-2.797,7.938-4.991,12.539-6.584c4.6-1.594,9.575-2.392,14.928-2.392
			c6.794,0,12.853,0.902,18.175,2.706c5.322,1.805,9.952,4.301,13.891,7.488c3.939,3.188,7.247,6.977,9.923,11.365
			c2.675,4.39,4.734,9.199,6.179,14.431h-12.809c-3.008-8.537-7.368-14.883-13.079-19.031c-5.714-4.149-13.14-6.225-22.281-6.225
			c-5.653,0-10.84,1.323-15.56,3.968c-4.722,2.647-8.795,6.225-12.222,10.735c-3.429,4.51-6.09,9.741-7.984,15.694
			C320.622,724.475,319.675,730.758,319.675,737.373z"/>
		<polygon fill="#FFFFFF" stroke="#000000" stroke-miterlimit="10" points="420.823,798.677 420.823,676.519 505.186,676.519 
			505.186,695.938 441.412,695.938 441.412,725.949 501.397,725.949 501.397,745.369 441.412,745.369 441.412,779.261 
			507.982,779.261 507.982,798.677 		"/>
		<path fill="#FFFFFF" stroke="#000000" stroke-miterlimit="10" d="M500.979,680.726v11.006h-63.773v38.426h59.984v11.006h-59.984
			v42.304h66.57v11.005h-78.747V680.726H500.979z"/>
		<path fill="#FFFFFF" stroke="#000000" stroke-miterlimit="10" d="M563.487,801.926c-5.809,0-11.536-0.994-17.019-2.953
			c-5.508-1.966-10.483-4.814-14.79-8.464c-4.348-3.683-7.91-8.216-10.591-13.476c-2.707-5.316-4.181-11.334-4.38-17.885
			l-0.132-4.334h20.779l0.289,3.894c0.263,3.512,1.078,6.772,2.424,9.692c1.333,2.901,3.133,5.441,5.351,7.557
			c2.207,2.105,4.854,3.768,7.868,4.942c3.04,1.187,6.472,1.788,10.2,1.788c3.447,0,6.781-0.371,9.909-1.105
			c2.933-0.688,5.55-1.813,7.783-3.345c2.137-1.464,3.785-3.303,5.04-5.614c1.219-2.252,1.837-5.13,1.837-8.55
			c0-2.483-0.581-4.497-1.776-6.154c-1.38-1.91-3.247-3.595-5.552-5.009c-2.53-1.551-5.446-2.908-8.664-4.036
			c-3.451-1.21-7.03-2.394-10.64-3.517c-3.049-0.897-6.192-1.883-9.279-2.911c-3.203-1.068-6.329-2.291-9.291-3.633
			c-3.067-1.386-5.978-3.031-8.647-4.888c-2.777-1.93-5.237-4.201-7.312-6.752c-2.129-2.615-3.818-5.659-5.027-9.045
			c-1.21-3.384-1.823-7.257-1.823-11.515c0-5.334,1.076-10.177,3.202-14.388c2.129-4.222,5.169-7.793,9.033-10.613
			c3.74-2.729,8.224-4.816,13.325-6.209c4.965-1.354,10.497-2.042,16.44-2.042c7.942,0,14.714,1.195,20.125,3.553
			c5.435,2.366,9.896,5.465,13.264,9.205c3.354,3.726,5.815,7.915,7.316,12.452c1.429,4.322,2.287,8.574,2.55,12.64l0.291,4.478
			h-20.823l-0.307-3.872c-0.256-3.205-1.009-6.032-2.244-8.402c-1.233-2.368-2.835-4.372-4.76-5.957
			c-1.951-1.605-4.246-2.837-6.82-3.661c-2.667-0.854-5.558-1.287-8.592-1.287c-2.876,0-5.734,0.303-8.496,0.896
			c-2.611,0.566-4.966,1.463-6.994,2.665c-1.876,1.111-3.334,2.511-4.459,4.279c-1.031,1.617-1.553,3.725-1.553,6.265
			c0,2.638,0.582,4.76,1.78,6.493c1.349,1.948,3.193,3.662,5.485,5.091c2.522,1.574,5.494,2.975,8.836,4.16
			c3.573,1.273,7.28,2.478,11.015,3.583c3.142,0.987,6.261,1.996,9.336,3.021c3.203,1.068,6.317,2.293,9.26,3.639
			c3.034,1.387,5.896,2.99,8.507,4.766c2.768,1.881,5.197,4.104,7.223,6.605c2.065,2.561,3.71,5.542,4.886,8.863
			c1.179,3.328,1.776,7.108,1.776,11.237c0,6.146-1.174,11.681-3.49,16.448c-2.319,4.776-5.592,8.827-9.729,12.038
			c-4.052,3.151-8.908,5.534-14.43,7.087C575.625,801.158,569.735,801.926,563.487,801.926z"/>
		<path fill="#FFFFFF" stroke="#000000" stroke-miterlimit="10" d="M533.451,759.021c0.299,4.03,1.23,7.744,2.797,11.14
			c1.562,3.398,3.651,6.346,6.269,8.841c2.616,2.496,5.698,4.436,9.246,5.819c3.547,1.383,7.456,2.073,11.725,2.073
			c3.789,0,7.411-0.405,10.87-1.216c3.457-0.813,6.524-2.136,9.201-3.971c2.675-1.833,4.796-4.195,6.359-7.08
			c1.562-2.887,2.346-6.404,2.346-10.554c0-3.368-0.857-6.24-2.572-8.615c-1.713-2.374-3.969-4.42-6.765-6.133
			c-2.796-1.715-5.953-3.188-9.472-4.421c-3.518-1.231-7.111-2.419-10.779-3.563c-3.065-0.902-6.134-1.862-9.2-2.886
			c-3.068-1.021-6.029-2.178-8.884-3.473c-2.857-1.292-5.52-2.798-7.984-4.511c-2.465-1.714-4.616-3.698-6.449-5.952
			c-1.835-2.255-3.279-4.855-4.33-7.803c-1.052-2.946-1.578-6.314-1.578-10.103c0-4.692,0.917-8.854,2.751-12.493
			c1.835-3.637,4.419-6.676,7.759-9.11c3.336-2.435,7.32-4.285,11.951-5.547c4.629-1.264,9.74-1.894,15.334-1.894
			c7.396,0,13.545,1.066,18.446,3.201c4.9,2.134,8.839,4.855,11.816,8.162c2.978,3.308,5.126,6.961,6.45,10.96
			c1.319,3.999,2.104,7.863,2.346,11.591h-12.448c-0.301-3.787-1.204-7.127-2.708-10.011c-1.503-2.888-3.441-5.308-5.816-7.263
			c-2.377-1.954-5.111-3.428-8.209-4.42c-3.097-0.99-6.391-1.487-9.877-1.487c-3.188,0-6.315,0.329-9.381,0.99
			c-3.068,0.664-5.817,1.715-8.253,3.158c-2.436,1.442-4.392,3.324-5.864,5.638c-1.474,2.314-2.211,5.156-2.211,8.524
			c0,3.489,0.843,6.449,2.527,8.884c1.683,2.436,3.924,4.526,6.719,6.27c2.797,1.745,6.013,3.262,9.653,4.556
			c3.636,1.294,7.38,2.513,11.229,3.652c3.066,0.963,6.135,1.955,9.201,2.979c3.065,1.021,6.012,2.179,8.84,3.472
			c2.825,1.293,5.457,2.767,7.892,4.42c2.437,1.655,4.539,3.578,6.314,5.772c1.771,2.196,3.17,4.735,4.194,7.623
			c1.022,2.886,1.533,6.165,1.533,9.832c0,5.532-1.022,10.404-3.065,14.612c-2.047,4.209-4.887,7.728-8.523,10.555
			c-3.642,2.826-7.97,4.947-12.99,6.356c-5.022,1.414-10.479,2.122-16.373,2.122c-5.353,0-10.553-0.902-15.604-2.707
			c-5.051-1.804-9.548-4.374-13.484-7.712c-3.938-3.338-7.128-7.396-9.563-12.177c-2.434-4.782-3.741-10.147-3.923-16.103H533.451z"
			/>
		<rect x="611.872" y="782.87" fill="#FFFFFF" stroke="#000000" stroke-miterlimit="10" width="15.64" height="15.807"/>
		<path fill="#FFFFFF" stroke="#000000" stroke-miterlimit="10" d="M623.305,787.076v7.396h-7.228v-7.396H623.305z"/>
		<path fill="#FFFFFF" stroke="#000000" stroke-miterlimit="10" d="M654.995,800.197c-4.209,0-8.105-0.783-11.576-2.328
			c-3.523-1.566-6.564-3.864-9.041-6.828c-2.417-2.895-4.294-6.441-5.58-10.545c-1.251-3.98-1.885-8.504-1.885-13.449
			c0-2.62,0.272-5.236,0.811-7.776c0.542-2.564,1.351-5.03,2.405-7.328c1.063-2.322,2.389-4.498,3.938-6.468
			c1.599-2.029,3.46-3.806,5.535-5.284c2.103-1.495,4.458-2.675,7.007-3.507c2.573-0.842,5.365-1.268,8.302-1.268
			c3.63,0,6.949,0.504,9.865,1.493c2.949,1,5.573,2.418,7.799,4.218c2.214,1.794,4.097,3.947,5.595,6.405
			c1.452,2.386,2.583,5.021,3.36,7.834l1.467,5.323h-14.501l-0.989-2.81c-1.113-3.159-2.673-5.485-4.632-6.909
			c-1.931-1.401-4.611-2.112-7.964-2.112c-1.948,0-3.672,0.425-5.268,1.299c-1.722,0.943-3.172,2.188-4.435,3.804
			c-1.294,1.659-2.322,3.639-3.055,5.878c-0.746,2.283-1.123,4.736-1.123,7.294c0,3.561,0.453,6.651,1.346,9.188
			c0.874,2.482,2,4.525,3.347,6.072c1.31,1.505,2.735,2.591,4.355,3.314c1.638,0.734,3.243,1.092,4.916,1.092
			c1.726,0,3.271-0.301,4.588-0.896c1.426-0.642,2.627-1.456,3.669-2.49c1.066-1.056,1.959-2.282,2.654-3.651
			c0.724-1.419,1.236-2.888,1.525-4.357l0.669-3.393h14.348l-0.971,5.008c-0.608,3.131-1.616,6.102-2.996,8.829
			c-1.425,2.815-3.278,5.316-5.508,7.429c-2.259,2.141-4.925,3.848-7.919,5.069C662.039,799.575,658.653,800.197,654.995,800.197z"
			/>
		<path fill="#FFFFFF" stroke="#000000" stroke-miterlimit="10" d="M636.824,767.133c0,4.056,0.529,7.585,1.586,10.586
			c1.057,2.997,2.436,5.478,4.141,7.436c1.703,1.959,3.641,3.422,5.812,4.394c2.166,0.973,4.377,1.457,6.633,1.457
			c2.338,0,4.442-0.422,6.316-1.268c1.873-0.843,3.507-1.956,4.901-3.339c1.395-1.378,2.541-2.956,3.444-4.73
			c0.899-1.775,1.534-3.593,1.901-5.451h5.788c-0.534,2.761-1.408,5.34-2.619,7.731c-1.212,2.396-2.762,4.485-4.649,6.276
			c-1.886,1.79-4.09,3.197-6.611,4.225c-2.522,1.027-5.345,1.543-8.472,1.543c-3.635,0-6.924-0.655-9.867-1.965
			s-5.452-3.205-7.521-5.684s-3.671-5.515-4.795-9.106c-1.128-3.59-1.691-7.654-1.691-12.19c0-2.338,0.24-4.639,0.719-6.907
			c0.479-2.268,1.183-4.416,2.112-6.444c0.93-2.029,2.07-3.903,3.423-5.621c1.352-1.718,2.908-3.204,4.668-4.457
			c1.763-1.252,3.72-2.231,5.874-2.936c2.155-0.705,4.486-1.058,6.995-1.058c3.181,0,6.021,0.423,8.514,1.268
			c2.493,0.845,4.662,2.016,6.507,3.507c1.845,1.494,3.396,3.269,4.646,5.323c1.254,2.058,2.22,4.311,2.895,6.762h-5.999
			c-1.408-3.999-3.45-6.971-6.126-8.915s-6.155-2.916-10.437-2.916c-2.649,0-5.08,0.605-7.289,1.816
			c-2.214,1.214-4.121,2.847-5.727,4.901c-1.605,2.058-2.853,4.446-3.739,7.162C637.269,761.253,636.824,764.117,636.824,767.133z"
			/>
		<path fill="#FFFFFF" stroke="#000000" stroke-miterlimit="10" d="M709.377,800.072c-4.395,0-8.403-0.818-11.918-2.435
			c-3.547-1.631-6.575-3.961-8.999-6.928c-2.365-2.886-4.179-6.344-5.392-10.273c-1.177-3.809-1.771-8.028-1.771-12.543
			c0-4.487,0.594-8.693,1.771-12.504c1.213-3.928,3.026-7.385,5.392-10.274c2.427-2.966,5.453-5.296,8.998-6.926
			c3.516-1.614,7.524-2.433,11.919-2.433c4.421,0,8.446,0.818,11.961,2.433c3.539,1.628,6.57,3.954,9.011,6.914
			c2.384,2.894,4.207,6.354,5.422,10.286c1.175,3.812,1.771,8.018,1.771,12.504c0,4.514-0.596,8.732-1.771,12.542
			c-1.216,3.936-3.039,7.396-5.421,10.289c-2.439,2.958-5.472,5.286-9.01,6.913C717.823,799.254,713.798,800.072,709.377,800.072z
			 M709.377,749.153c-1.951,0-3.708,0.38-5.369,1.164c-1.667,0.784-3.085,1.893-4.331,3.388c-1.283,1.54-2.317,3.496-3.075,5.817
			c-0.789,2.409-1.188,5.226-1.188,8.371c0,3.143,0.399,5.96,1.188,8.371c0.76,2.326,1.798,4.293,3.085,5.846
			c1.246,1.507,2.659,2.618,4.321,3.4c1.658,0.781,3.415,1.163,5.369,1.163s3.709-0.382,5.37-1.163
			c1.663-0.785,3.091-1.901,4.353-3.415c1.3-1.554,2.352-3.522,3.124-5.852c0.796-2.404,1.202-5.215,1.202-8.351
			c0-3.138-0.406-5.947-1.203-8.354c-0.771-2.321-1.818-4.28-3.113-5.82c-1.266-1.502-2.692-2.615-4.362-3.402
			C713.084,749.533,711.329,749.153,709.377,749.153z"/>
		<path fill="#FFFFFF" stroke="#000000" stroke-miterlimit="10" d="M733.335,767.894c0,4.113-0.527,7.879-1.583,11.303
			c-1.058,3.422-2.607,6.375-4.65,8.852c-2.041,2.479-4.548,4.401-7.52,5.769c-2.974,1.366-6.375,2.05-10.205,2.05
			c-3.804,0-7.19-0.684-10.162-2.05c-2.974-1.367-5.472-3.289-7.5-5.769c-2.029-2.477-3.57-5.43-4.627-8.852
			c-1.057-3.424-1.585-7.189-1.585-11.303c0-4.085,0.528-7.84,1.585-11.263c1.057-3.422,2.598-6.373,4.627-8.853
			c2.028-2.478,4.526-4.399,7.5-5.769c2.972-1.363,6.358-2.048,10.162-2.048c3.83,0,7.231,0.685,10.205,2.048
			c2.972,1.369,5.479,3.291,7.52,5.769c2.043,2.479,3.593,5.431,4.65,8.853C732.808,760.054,733.335,763.809,733.335,767.894z
			 M727.631,767.894c0-3.607-0.472-6.832-1.414-9.678c-0.945-2.843-2.241-5.246-3.889-7.203c-1.647-1.959-3.578-3.459-5.789-4.501
			c-2.213-1.041-4.601-1.564-7.162-1.564c-2.564,0-4.952,0.523-7.162,1.564c-2.212,1.042-4.136,2.542-5.769,4.501
			c-1.634,1.957-2.915,4.36-3.845,7.203c-0.93,2.846-1.396,6.07-1.396,9.678c0,3.604,0.467,6.83,1.396,9.676
			c0.93,2.844,2.211,5.254,3.845,7.225c1.633,1.973,3.557,3.48,5.769,4.521c2.21,1.043,4.598,1.562,7.162,1.562
			c2.562,0,4.949-0.52,7.162-1.562c2.211-1.04,4.142-2.548,5.789-4.521c1.647-1.971,2.943-4.381,3.889-7.225
			C727.159,774.724,727.631,771.498,727.631,767.894z"/>
		<polygon fill="#FFFFFF" stroke="#000000" stroke-miterlimit="10" points="780.509,798.677 780.509,774.399 771.595,798.677 
			760.627,798.677 751.398,773.995 751.398,798.677 737.283,798.677 737.283,736.982 751.764,736.982 765.787,774.668 
			780.125,736.982 794.585,736.982 794.585,798.677 		"/>
		<path fill="#FFFFFF" stroke="#000000" stroke-miterlimit="10" d="M748.84,741.188l16.904,45.425l17.282-45.425h7.352v53.284
			h-5.663v-43.733l-16.056,43.733h-5.114l-16.353-43.733v43.733h-5.703v-53.284H748.84z"/>
	</g>
</g>
<text transform="matrix(1 0 0 1 36.2441 367.0835)" display="none"><tspan x="0" y="0" display="inline" font-family="'DevanagariSangamMN'" font-size="363" letter-spacing="105">FPV</tspan><tspan x="10.627" y="156.409" display="inline" font-family="'DevanagariSangamMN'" font-size="202">LANDING</tspan><tspan x="11.54" y="306.409" display="inline" font-family="'DevanagariSangamMN'" font-size="193">PAGES</tspan><tspan x="616.588" y="306.409" display="inline" font-family="'DevanagariSangamMN'" font-size="90.4099">.COM</tspan></text>
</svg>
